# xmcd
#
# Track frame offsets:
#	150
#	14075
#	31212
#	53960
#	64790
#	83510
#	96110
#	126657
#	135695
#	161910
#	173975
#	200745
#	214230
#	226477
#	244590
#	258445
#
# Disc length: 3615
#
# Revision: 3
# Processed by: cddbd v1.5.1PL0 Copyright (c) Steve Scherf et al.
# Submitted via: FreeRIP 2.30 
# Normalized: r2:TDELIM( - )
#
DISCID=ec0e1d10
DTITLE=Various (Original Artists} - Blues Collection Volume 2
DYEAR=1900
DGENRE=
TTITLE0=Jeff Beck - Jeff's Blues
TTITLE1=John Lee Hooker - Blues before sunrise
TTITLE2=Sonny Terry and Brownie McGhee - Drinking in the blues
TTITLE3=Muddy Waters - Diamonds at your feet
TTITLE4=Eric Clapton - They call it stormy monday
TTITLE5=Howlin Wolf - Ain't superstitious
TTITLE6=Big Joe Turner - How long blues
TTITLE7=Jeff Beck - I ain't got you
TTITLE8=B.B. King - Guess who
TTITLE9=Jimmy Reed - Honest I do
TTITLE10=Otis Rush/Little Walther - It's hard for me to believe, baby
TTITLE11=Memphis Slim - Everyday I have the blues
TTITLE12=Elmore James - Mean mistreatin' mama
TTITLE13=Nina Simone - Blues for mama
TTITLE14=Howlin Wolf - Highway 49
TTITLE15=Muddy Waters - Forty days and forty nights
EXTD=
EXTT0=
EXTT1=
EXTT2=
EXTT3=
EXTT4=
EXTT5=
EXTT6=
EXTT7=
EXTT8=
EXTT9=
EXTT10=
EXTT11=
EXTT12=
EXTT13=
EXTT14=
EXTT15=
PLAYORDER=
